<svg width="24" height="24" viewBox="0 0 24 24" fill="none" xmlns="http://www.w3.org/2000/svg">
<path fill-rule="evenodd" clip-rule="evenodd" d="M20.5302 11.47C20.6706 11.6107 20.7495 11.8013 20.7495 12C20.7495 12.1988 20.6706 12.3894 20.5302 12.53L14.5302 18.53C14.4615 18.6037 14.3787 18.6628 14.2867 18.7038C14.1947 18.7448 14.0954 18.7668 13.9947 18.7686C13.894 18.7704 13.794 18.7519 13.7006 18.7142C13.6072 18.6764 13.5224 18.6203 13.4511 18.5491C13.3799 18.4779 13.3238 18.393 13.286 18.2996C13.2483 18.2062 13.2298 18.1062 13.2316 18.0055C13.2334 17.9048 13.2554 17.8055 13.2964 17.7135C13.3374 17.6215 13.3965 17.5387 13.4702 17.47L18.1902 12.75L4.00017 12.75C3.80126 12.75 3.61049 12.671 3.46984 12.5304C3.32919 12.3897 3.25017 12.1989 3.25017 12C3.25017 11.8011 3.32919 11.6104 3.46984 11.4697C3.61049 11.329 3.80126 11.25 4.00017 11.25L18.1902 11.25L13.4702 6.53003C13.3965 6.46137 13.3374 6.37857 13.2964 6.28657C13.2554 6.19457 13.2334 6.09526 13.2316 5.99455C13.2298 5.89385 13.2483 5.79382 13.286 5.70043C13.3238 5.60705 13.3799 5.52221 13.4511 5.45099C13.5224 5.37977 13.6072 5.32363 13.7006 5.28591C13.794 5.24819 13.894 5.22966 13.9947 5.23144C14.0954 5.23322 14.1947 5.25526 14.2867 5.29625C14.3787 5.33724 14.4615 5.39635 14.5302 5.47003L20.5302 11.47Z" fill="#78A283"/>
</svg>
