<svg width="60" height="60" viewBox="0 0 60 60" fill="none" xmlns="http://www.w3.org/2000/svg">
<path fill-rule="evenodd" clip-rule="evenodd" d="M26.6677 15.335L25.4127 14.4475C23.6218 13.1801 21.4817 12.4996 19.2877 12.5H17.7577C16.7452 12.5 15.7252 12.5625 14.7727 12.9C8.8152 15.015 4.7177 22.7375 5.0152 40.2575C5.0752 43.7875 5.9002 47.6875 9.0852 49.21C10.1717 49.7324 11.3622 50.0024 12.5677 50C13.9227 50.0222 15.2538 49.642 16.3927 48.9075C17.4177 48.2375 18.3177 47.3675 19.2177 46.4975C20.3277 45.4225 21.4377 44.3475 22.7777 43.6525C24.2374 42.8948 25.8581 42.4995 27.5027 42.5H32.5002C34.1452 42.5 35.7652 42.895 37.2252 43.65C38.5652 44.3475 39.6752 45.4225 40.7877 46.4975C41.6877 47.3675 42.5877 48.2375 43.6077 48.9075C44.5827 49.5475 45.8452 50 47.4352 50C48.6407 50.0024 49.8312 49.7324 50.9177 49.21C54.1027 47.6875 54.9277 43.785 54.9877 40.2575C55.2852 22.7375 51.1877 15.015 45.2302 12.9025C44.2752 12.5625 43.2502 12.5 42.2427 12.5H40.7127C38.5184 12.5004 36.3783 13.1817 34.5877 14.45L33.3327 15.335C32.3579 16.0237 31.1937 16.3935 30.0002 16.3935C28.8067 16.3935 27.6425 16.0237 26.6677 15.335ZM41.8752 22.5C42.3725 22.5 42.8494 22.6975 43.201 23.0492C43.5527 23.4008 43.7502 23.8777 43.7502 24.375C43.7502 24.8723 43.5527 25.3492 43.201 25.7008C42.8494 26.0525 42.3725 26.25 41.8752 26.25C41.3779 26.25 40.901 26.0525 40.5494 25.7008C40.1977 25.3492 40.0002 24.8723 40.0002 24.375C40.0002 23.8777 40.1977 23.4008 40.5494 23.0492C40.901 22.6975 41.3779 22.5 41.8752 22.5ZM18.7502 23.125C19.2475 23.125 19.7244 23.3225 20.076 23.6742C20.4277 24.0258 20.6252 24.5027 20.6252 25V26.875H22.5002C22.9975 26.875 23.4744 27.0725 23.826 27.4242C24.1777 27.7758 24.3752 28.2527 24.3752 28.75C24.3752 29.2473 24.1777 29.7242 23.826 30.0758C23.4744 30.4275 22.9975 30.625 22.5002 30.625H20.6252V32.5C20.6252 32.9973 20.4277 33.4742 20.076 33.8258C19.7244 34.1775 19.2475 34.375 18.7502 34.375C18.2529 34.375 17.776 34.1775 17.4244 33.8258C17.0727 33.4742 16.8752 32.9973 16.8752 32.5V30.625H15.0002C14.5029 30.625 14.026 30.4275 13.6744 30.0758C13.3227 29.7242 13.1252 29.2473 13.1252 28.75C13.1252 28.2527 13.3227 27.7758 13.6744 27.4242C14.026 27.0725 14.5029 26.875 15.0002 26.875H16.8752V25C16.8752 24.5027 17.0727 24.0258 17.4244 23.6742C17.776 23.3225 18.2529 23.125 18.7502 23.125ZM47.5002 28.125C47.5002 28.6223 47.3027 29.0992 46.951 29.4508C46.5994 29.8025 46.1225 30 45.6252 30C45.1279 30 44.651 29.8025 44.2994 29.4508C43.9477 29.0992 43.7502 28.6223 43.7502 28.125C43.7502 27.6277 43.9477 27.1508 44.2994 26.7992C44.651 26.4475 45.1279 26.25 45.6252 26.25C46.1225 26.25 46.5994 26.4475 46.951 26.7992C47.3027 27.1508 47.5002 27.6277 47.5002 28.125ZM38.1252 30C38.6225 30 39.0994 29.8025 39.451 29.4508C39.8027 29.0992 40.0002 28.6223 40.0002 28.125C40.0002 27.6277 39.8027 27.1508 39.451 26.7992C39.0994 26.4475 38.6225 26.25 38.1252 26.25C37.6279 26.25 37.151 26.4475 36.7994 26.7992C36.4477 27.1508 36.2502 27.6277 36.2502 28.125C36.2502 28.6223 36.4477 29.0992 36.7994 29.4508C37.151 29.8025 37.6279 30 38.1252 30ZM43.7502 31.875C43.7502 31.3777 43.5527 30.9008 43.201 30.5492C42.8494 30.1975 42.3725 30 41.8752 30C41.3779 30 40.901 30.1975 40.5494 30.5492C40.1977 30.9008 40.0002 31.3777 40.0002 31.875C40.0002 32.3723 40.1977 32.8492 40.5494 33.2008C40.901 33.5525 41.3779 33.75 41.8752 33.75C42.3725 33.75 42.8494 33.5525 43.201 33.2008C43.5527 32.8492 43.7502 32.3723 43.7502 31.875Z" fill="#F8F3EF"/>
</svg>
