<svg width="621" height="60" viewBox="0 0 621 60" fill="none" xmlns="http://www.w3.org/2000/svg">
<path d="M311.671 43.2764H319.468V59.2256H312.202V50.1289H269.377V59.2256H262.112V43.2764H267.589C269.308 41.3135 270.575 38.5386 271.386 34.9482C272.252 31.286 272.686 26.6784 272.686 21.126C272.686 18.7238 272.607 16.2231 272.449 13.624C272.292 11.0251 272.095 8.42611 271.858 5.82715H311.671V43.2764ZM179.51 5C184.55 5 188.981 5.96495 192.801 7.89453C196.62 9.82403 199.593 12.5212 201.72 15.9863C203.846 19.4123 204.909 23.4096 204.909 27.9775C204.909 32.5454 203.846 36.562 201.72 40.0273C199.593 43.4533 196.621 46.1319 192.801 48.0615C188.981 49.9911 184.55 50.9551 179.51 50.9551C174.469 50.9551 170.039 49.991 166.22 48.0615C162.4 46.1319 159.426 43.4533 157.3 40.0273C155.174 36.5621 154.11 32.5453 154.11 27.9775C154.11 23.4096 155.173 19.4123 157.3 15.9863C159.426 12.5211 162.4 9.82407 166.22 7.89453C170.039 5.96502 174.469 5.00002 179.51 5ZM518.332 40.9141C519.238 40.9141 520.045 41.1303 520.754 41.5635C521.502 41.9966 522.092 42.5878 522.525 43.3359C522.959 44.0448 523.176 44.8521 523.176 45.7578C523.176 46.6634 522.959 47.4902 522.525 48.2383C522.092 48.947 521.502 49.518 520.754 49.9512C520.045 50.3843 519.238 50.6015 518.332 50.6016C517.426 50.6016 516.599 50.3843 515.851 49.9512C515.142 49.518 514.571 48.947 514.138 48.2383C513.705 47.4902 513.488 46.6633 513.488 45.7578C513.488 44.8522 513.705 44.0447 514.138 43.3359C514.571 42.5878 515.142 41.9966 515.851 41.5635C516.599 41.1303 517.426 40.9141 518.332 40.9141ZM53.2988 50.1289H44.9697L40.2236 39.9688H14.0977L9.35156 50.1289H1.02246L22.2871 5.82715H32.0332L53.2988 50.1289ZM66.4951 24.375H94.7305V5.82715H102.527V50.1289H94.7305V31.2266H66.4951V50.1289H58.6982V5.82715H66.4951V24.375ZM152.863 12.6787H134.552V50.1289H126.755V12.6787H108.443V5.82715H152.863V12.6787ZM220.282 24.375H248.517V5.82715H256.313V50.1289H248.517V31.2266H220.282V50.1289H212.485V5.82715H220.282V24.375ZM343.198 33.0752L359.044 5.82715H367.55L341.619 50.1289H333.113L338.84 40.3516L318.582 5.82715H327.206L343.198 33.0752ZM396.355 5.82715C399.663 5.82715 402.519 6.41725 404.921 7.59863C407.362 8.77998 409.233 10.4342 410.532 12.5605C411.871 14.6476 412.54 17.0697 412.54 19.8262C412.54 22.5826 411.871 25.024 410.532 27.1504C409.233 29.2374 407.362 30.8723 404.921 32.0537C402.519 33.2351 399.663 33.8252 396.355 33.8252H380.702V50.1289H372.905V5.82715H396.355ZM461.128 50.1289H452.799L448.053 39.9688H421.927L417.181 50.1289H408.852L430.116 5.82715H439.862L461.128 50.1289ZM474.324 39.2051L501.613 5.82715H510.061L494.503 24.6768L510.71 50.1289H501.791L489.47 30.7744L473.497 50.1289H466.527V5.82715H474.324V39.2051ZM554.354 5.82715C557.661 5.82719 560.516 6.4174 562.918 7.59863C565.359 8.77994 567.23 10.4342 568.529 12.5605C569.868 14.6476 570.538 17.0697 570.538 19.8262C570.538 22.5827 569.868 25.0239 568.529 27.1504C567.23 29.2375 565.359 30.8723 562.918 32.0537C560.516 33.235 557.661 33.8252 554.354 33.8252H538.7V50.1289H530.903V5.82715H554.354ZM595.626 33.0762L611.471 5.82715H619.977L594.046 50.1289H585.54L591.267 40.3516L571.009 5.82715H579.633L595.626 33.0762ZM179.51 11.9697C175.966 11.9697 172.875 12.6196 170.236 13.9189C167.637 15.2184 165.609 17.0697 164.152 19.4717C162.735 21.8738 162.025 24.7092 162.025 27.9775C162.025 31.246 162.735 34.0813 164.152 36.4834C165.609 38.8855 167.637 40.7366 170.236 42.0361C172.875 43.3356 175.966 43.9853 179.51 43.9854C183.093 43.9854 186.185 43.3356 188.784 42.0361C191.383 40.7366 193.391 38.8854 194.809 36.4834C196.266 34.0813 196.994 31.246 196.994 27.9775C196.994 24.7092 196.266 21.8738 194.809 19.4717C193.391 17.0697 191.383 15.2184 188.784 13.9189C186.185 12.6194 183.093 11.9697 179.51 11.9697ZM279.616 12.6787C279.71 14.0056 279.783 15.3249 279.832 16.6367C279.911 18.763 279.95 20.7711 279.95 22.6611C279.95 27.6229 279.597 31.8566 278.888 35.3613C278.179 38.866 277.135 41.5437 275.757 43.3945H303.873V12.6787H279.616ZM17.1055 33.5303H37.2158L27.1602 12.0049L17.1055 33.5303ZM424.935 33.5303H445.045L434.989 12.0049L424.935 33.5303ZM380.702 27.0918H396.061C398.738 27.0917 400.825 26.4419 402.321 25.1426C403.857 23.8431 404.625 22.0708 404.625 19.8262C404.625 17.5816 403.857 15.8093 402.321 14.5098C400.825 13.2105 398.738 12.5606 396.061 12.5605H380.702V27.0918ZM538.7 27.0918H554.058C556.735 27.0918 558.823 26.4421 560.319 25.1426C561.855 23.8431 562.623 22.0707 562.623 19.8262C562.623 17.5816 561.855 15.8093 560.319 14.5098C558.823 13.2103 556.735 12.5605 554.058 12.5605H538.7V27.0918Z" fill="#6C90E4"/>
</svg>
